<svg width="16" height="16" viewBox="0 0 16 16" fill="none" xmlns="http://www.w3.org/2000/svg">
<path d="M12.8245 8.42451L9.2245 12.0245C9.11178 12.1372 8.95891 12.2006 8.7995 12.2006C8.64009 12.2006 8.48722 12.1372 8.3745 12.0245C8.26178 11.9118 8.19846 11.7589 8.19846 11.5995C8.19846 11.4401 8.26178 11.2872 8.3745 11.1745L10.95 8.60001H3.6C3.44087 8.60001 3.28826 8.5368 3.17574 8.42428C3.06321 8.31176 3 8.15914 3 8.00001C3 7.84088 3.06321 7.68827 3.17574 7.57575C3.28826 7.46323 3.44087 7.40001 3.6 7.40001H10.95L8.3755 4.82401C8.26278 4.7113 8.19946 4.55842 8.19946 4.39901C8.19946 4.23961 8.26278 4.08673 8.3755 3.97401C8.48822 3.8613 8.64109 3.79797 8.8005 3.79797C8.95991 3.79797 9.11278 3.8613 9.2255 3.97401L12.8255 7.57401C12.8814 7.62983 12.9258 7.69615 12.9561 7.76916C12.9863 7.84218 13.0018 7.92044 13.0017 7.99947C13.0016 8.0785 12.9859 8.15673 12.9555 8.22967C12.9251 8.30261 12.8806 8.36883 12.8245 8.42451Z" fill="black"/>
</svg>
